<mxfile host="app.diagrams.net" agent="Mozilla/5.0 (Windows NT 10.0; Win64; x64) AppleWebKit/537.36 (KHTML, like Gecko) Chrome/130.0.0.0 Safari/537.36" version="24.7.17">
  <diagram name="Страница — 1" id="DFpWJEd-3d7gm6HWqR8q">
    <mxGraphModel dx="2620" dy="965" grid="1" gridSize="10" guides="1" tooltips="1" connect="1" arrows="1" fold="1" page="1" pageScale="1" pageWidth="827" pageHeight="1169" math="0" shadow="0">
      <root>
        <mxCell id="0" />
        <mxCell id="1" parent="0" />
        <mxCell id="HeE2w3zI4BH_IQF3B-vT-17" style="edgeStyle=orthogonalEdgeStyle;rounded=0;orthogonalLoop=1;jettySize=auto;html=1;" edge="1" parent="1" source="HeE2w3zI4BH_IQF3B-vT-1" target="HeE2w3zI4BH_IQF3B-vT-5">
          <mxGeometry relative="1" as="geometry" />
        </mxCell>
        <mxCell id="HeE2w3zI4BH_IQF3B-vT-1" value="Владение" style="rhombus;whiteSpace=wrap;html=1;" vertex="1" parent="1">
          <mxGeometry x="410" y="570" width="200" height="70" as="geometry" />
        </mxCell>
        <mxCell id="HeE2w3zI4BH_IQF3B-vT-16" style="edgeStyle=orthogonalEdgeStyle;rounded=0;orthogonalLoop=1;jettySize=auto;html=1;" edge="1" parent="1" source="HeE2w3zI4BH_IQF3B-vT-3" target="HeE2w3zI4BH_IQF3B-vT-1">
          <mxGeometry relative="1" as="geometry" />
        </mxCell>
        <mxCell id="HeE2w3zI4BH_IQF3B-vT-27" value="" style="edgeStyle=orthogonalEdgeStyle;rounded=0;orthogonalLoop=1;jettySize=auto;html=1;" edge="1" parent="1" source="HeE2w3zI4BH_IQF3B-vT-3" target="HeE2w3zI4BH_IQF3B-vT-26">
          <mxGeometry relative="1" as="geometry">
            <mxPoint x="370" y="500" as="targetPoint" />
          </mxGeometry>
        </mxCell>
        <mxCell id="HeE2w3zI4BH_IQF3B-vT-57" value="" style="edgeStyle=orthogonalEdgeStyle;rounded=0;orthogonalLoop=1;jettySize=auto;html=1;" edge="1" parent="1" source="HeE2w3zI4BH_IQF3B-vT-3" target="HeE2w3zI4BH_IQF3B-vT-56">
          <mxGeometry relative="1" as="geometry" />
        </mxCell>
        <mxCell id="HeE2w3zI4BH_IQF3B-vT-63" style="edgeStyle=orthogonalEdgeStyle;rounded=0;orthogonalLoop=1;jettySize=auto;html=1;entryX=0;entryY=0.5;entryDx=0;entryDy=0;" edge="1" parent="1" source="HeE2w3zI4BH_IQF3B-vT-3" target="HeE2w3zI4BH_IQF3B-vT-62">
          <mxGeometry relative="1" as="geometry" />
        </mxCell>
        <mxCell id="HeE2w3zI4BH_IQF3B-vT-3" value="Футбольный клуб" style="rounded=0;whiteSpace=wrap;html=1;" vertex="1" parent="1">
          <mxGeometry x="430" y="375" width="160" height="60" as="geometry" />
        </mxCell>
        <mxCell id="HeE2w3zI4BH_IQF3B-vT-59" value="" style="edgeStyle=orthogonalEdgeStyle;rounded=0;orthogonalLoop=1;jettySize=auto;html=1;" edge="1" parent="1" source="HeE2w3zI4BH_IQF3B-vT-5" target="HeE2w3zI4BH_IQF3B-vT-58">
          <mxGeometry relative="1" as="geometry" />
        </mxCell>
        <mxCell id="HeE2w3zI4BH_IQF3B-vT-60" style="edgeStyle=orthogonalEdgeStyle;rounded=0;orthogonalLoop=1;jettySize=auto;html=1;entryX=0.5;entryY=1;entryDx=0;entryDy=0;" edge="1" parent="1" source="HeE2w3zI4BH_IQF3B-vT-5" target="HeE2w3zI4BH_IQF3B-vT-26">
          <mxGeometry relative="1" as="geometry" />
        </mxCell>
        <mxCell id="HeE2w3zI4BH_IQF3B-vT-5" value="Дочерний&lt;br&gt;футбольный клуб" style="rounded=0;whiteSpace=wrap;html=1;" vertex="1" parent="1">
          <mxGeometry x="430" y="785" width="160" height="60" as="geometry" />
        </mxCell>
        <mxCell id="HeE2w3zI4BH_IQF3B-vT-33" style="edgeStyle=orthogonalEdgeStyle;rounded=0;orthogonalLoop=1;jettySize=auto;html=1;" edge="1" parent="1" source="HeE2w3zI4BH_IQF3B-vT-25" target="HeE2w3zI4BH_IQF3B-vT-32">
          <mxGeometry relative="1" as="geometry" />
        </mxCell>
        <mxCell id="HeE2w3zI4BH_IQF3B-vT-34" style="edgeStyle=orthogonalEdgeStyle;rounded=0;orthogonalLoop=1;jettySize=auto;html=1;" edge="1" parent="1" source="HeE2w3zI4BH_IQF3B-vT-25" target="HeE2w3zI4BH_IQF3B-vT-31">
          <mxGeometry relative="1" as="geometry" />
        </mxCell>
        <mxCell id="HeE2w3zI4BH_IQF3B-vT-25" value="Игрок" style="rounded=0;whiteSpace=wrap;html=1;" vertex="1" parent="1">
          <mxGeometry x="-140" y="485" width="160" height="60" as="geometry" />
        </mxCell>
        <mxCell id="HeE2w3zI4BH_IQF3B-vT-28" style="edgeStyle=orthogonalEdgeStyle;rounded=0;orthogonalLoop=1;jettySize=auto;html=1;entryX=1;entryY=0.5;entryDx=0;entryDy=0;" edge="1" parent="1" source="HeE2w3zI4BH_IQF3B-vT-26" target="HeE2w3zI4BH_IQF3B-vT-25">
          <mxGeometry relative="1" as="geometry" />
        </mxCell>
        <mxCell id="HeE2w3zI4BH_IQF3B-vT-29" style="edgeStyle=orthogonalEdgeStyle;rounded=0;orthogonalLoop=1;jettySize=auto;html=1;entryX=1;entryY=0.5;entryDx=0;entryDy=0;" edge="1" parent="1" source="HeE2w3zI4BH_IQF3B-vT-26" target="HeE2w3zI4BH_IQF3B-vT-30">
          <mxGeometry relative="1" as="geometry">
            <mxPoint x="-110" y="650" as="targetPoint" />
          </mxGeometry>
        </mxCell>
        <mxCell id="HeE2w3zI4BH_IQF3B-vT-26" value="Состоит" style="rhombus;whiteSpace=wrap;html=1;" vertex="1" parent="1">
          <mxGeometry x="110" y="570" width="200" height="70" as="geometry" />
        </mxCell>
        <mxCell id="HeE2w3zI4BH_IQF3B-vT-40" style="edgeStyle=orthogonalEdgeStyle;rounded=0;orthogonalLoop=1;jettySize=auto;html=1;" edge="1" parent="1" source="HeE2w3zI4BH_IQF3B-vT-30" target="HeE2w3zI4BH_IQF3B-vT-37">
          <mxGeometry relative="1" as="geometry" />
        </mxCell>
        <mxCell id="HeE2w3zI4BH_IQF3B-vT-41" style="edgeStyle=orthogonalEdgeStyle;rounded=0;orthogonalLoop=1;jettySize=auto;html=1;" edge="1" parent="1" source="HeE2w3zI4BH_IQF3B-vT-30" target="HeE2w3zI4BH_IQF3B-vT-36">
          <mxGeometry relative="1" as="geometry" />
        </mxCell>
        <mxCell id="HeE2w3zI4BH_IQF3B-vT-30" value="Менеджер" style="rounded=0;whiteSpace=wrap;html=1;" vertex="1" parent="1">
          <mxGeometry x="-140" y="685" width="160" height="60" as="geometry" />
        </mxCell>
        <mxCell id="HeE2w3zI4BH_IQF3B-vT-31" value="ФИО" style="ellipse;whiteSpace=wrap;html=1;" vertex="1" parent="1">
          <mxGeometry x="-380" y="440" width="130" height="70" as="geometry" />
        </mxCell>
        <mxCell id="HeE2w3zI4BH_IQF3B-vT-32" value="Зарплата" style="ellipse;whiteSpace=wrap;html=1;" vertex="1" parent="1">
          <mxGeometry x="-380" y="530" width="130" height="70" as="geometry" />
        </mxCell>
        <mxCell id="HeE2w3zI4BH_IQF3B-vT-36" value="ФИО" style="ellipse;whiteSpace=wrap;html=1;" vertex="1" parent="1">
          <mxGeometry x="-380" y="625" width="130" height="70" as="geometry" />
        </mxCell>
        <mxCell id="HeE2w3zI4BH_IQF3B-vT-37" value="Зарплата" style="ellipse;whiteSpace=wrap;html=1;" vertex="1" parent="1">
          <mxGeometry x="-380" y="715" width="130" height="70" as="geometry" />
        </mxCell>
        <mxCell id="HeE2w3zI4BH_IQF3B-vT-56" value="Название" style="ellipse;whiteSpace=wrap;html=1;" vertex="1" parent="1">
          <mxGeometry x="660" y="320" width="130" height="70" as="geometry" />
        </mxCell>
        <mxCell id="HeE2w3zI4BH_IQF3B-vT-58" value="Название" style="ellipse;whiteSpace=wrap;html=1;" vertex="1" parent="1">
          <mxGeometry x="630" y="780" width="130" height="70" as="geometry" />
        </mxCell>
        <mxCell id="HeE2w3zI4BH_IQF3B-vT-62" value="Город" style="ellipse;whiteSpace=wrap;html=1;" vertex="1" parent="1">
          <mxGeometry x="660" y="430" width="130" height="70" as="geometry" />
        </mxCell>
        <mxCell id="HeE2w3zI4BH_IQF3B-vT-65" value="" style="edgeStyle=orthogonalEdgeStyle;rounded=0;orthogonalLoop=1;jettySize=auto;html=1;" edge="1" parent="1" source="HeE2w3zI4BH_IQF3B-vT-64" target="HeE2w3zI4BH_IQF3B-vT-3">
          <mxGeometry relative="1" as="geometry" />
        </mxCell>
        <mxCell id="HeE2w3zI4BH_IQF3B-vT-64" value="Спонсирует" style="rhombus;whiteSpace=wrap;html=1;" vertex="1" parent="1">
          <mxGeometry x="410" y="250" width="200" height="70" as="geometry" />
        </mxCell>
        <mxCell id="HeE2w3zI4BH_IQF3B-vT-67" value="" style="edgeStyle=orthogonalEdgeStyle;rounded=0;orthogonalLoop=1;jettySize=auto;html=1;" edge="1" parent="1" source="HeE2w3zI4BH_IQF3B-vT-66" target="HeE2w3zI4BH_IQF3B-vT-64">
          <mxGeometry relative="1" as="geometry" />
        </mxCell>
        <mxCell id="HeE2w3zI4BH_IQF3B-vT-69" value="" style="edgeStyle=orthogonalEdgeStyle;rounded=0;orthogonalLoop=1;jettySize=auto;html=1;" edge="1" parent="1" source="HeE2w3zI4BH_IQF3B-vT-66" target="HeE2w3zI4BH_IQF3B-vT-68">
          <mxGeometry relative="1" as="geometry" />
        </mxCell>
        <mxCell id="HeE2w3zI4BH_IQF3B-vT-71" style="edgeStyle=orthogonalEdgeStyle;rounded=0;orthogonalLoop=1;jettySize=auto;html=1;" edge="1" parent="1" source="HeE2w3zI4BH_IQF3B-vT-66" target="HeE2w3zI4BH_IQF3B-vT-70">
          <mxGeometry relative="1" as="geometry" />
        </mxCell>
        <mxCell id="HeE2w3zI4BH_IQF3B-vT-66" value="Спонсор" style="rounded=0;whiteSpace=wrap;html=1;" vertex="1" parent="1">
          <mxGeometry x="430" y="130" width="160" height="60" as="geometry" />
        </mxCell>
        <mxCell id="HeE2w3zI4BH_IQF3B-vT-68" value="Название спонсора" style="ellipse;whiteSpace=wrap;html=1;" vertex="1" parent="1">
          <mxGeometry x="230" y="190" width="130" height="70" as="geometry" />
        </mxCell>
        <mxCell id="HeE2w3zI4BH_IQF3B-vT-70" value="Сумма" style="ellipse;whiteSpace=wrap;html=1;" vertex="1" parent="1">
          <mxGeometry x="230" y="80" width="130" height="70" as="geometry" />
        </mxCell>
      </root>
    </mxGraphModel>
  </diagram>
</mxfile>
